<?xml version="1.0" encoding="UTF-8"?>
<svg xmlns="http://www.w3.org/2000/svg" xmlns:xlink="http://www.w3.org/1999/xlink" xmlns:svgjs="http://svgjs.com/svgjs" version="1.1" width="512" height="512" x="0" y="0" viewBox="0 0 512 512" style="enable-background:new 0 0 512 512" xml:space="preserve" class="">
  <g><style lang="en" type="text/css" id="dark-mode-custom-style"/>
<g xmlns="http://www.w3.org/2000/svg">
	<g>
		<path d="M437.02,74.98C388.667,26.629,324.38,0,256,0S123.333,26.629,74.98,74.98C26.629,123.333,0,187.62,0,256    s26.629,132.667,74.98,181.02C123.333,485.371,187.62,512,256,512s132.667-26.629,181.02-74.98    C485.371,388.667,512,324.38,512,256S485.371,123.333,437.02,74.98z M88.676,287.499h-0.001H45.927v-62.997h16.02v49.588h26.729    V287.499z M113.694,287.499h-16.02v-62.997h16.02V287.499z M173.402,237.1h-30.688v14.58h28.259v12.6h-28.259v23.219h-16.02    v-62.997h46.708V237.1z M183.402,287.499v-62.997h49.318V237.1h-33.299v12.51h30.059v12.6h-30.059v12.689h34.288v12.6H183.402z     M276.55,237.461v50.128h-16.02v-50.128h-18.81v-12.96h53.818v12.96H276.55z M320.559,287.499h-16.02v-62.997h16.02V287.499z     M402.767,287.499h-0.001h-14.129l-0.091-40.948l-15.119,34.648h-10.439l-15.119-34.648v40.948h-14.31v-63.088h17.549l17.1,37.529    l17.1-37.529h17.459V287.499z M415.766,287.499v-62.997h49.318V237.1h-33.299v12.51h30.059v12.6h-30.059v12.689h34.288v12.6    H415.766z" fill="#00dd80" data-original="#000000" style="" class=""/>
	</g>
</g>















</g>
</svg>
